<svg width="631" height="143" viewBox="0 0 631 143" fill="none" xmlns="http://www.w3.org/2000/svg">
<path d="M154.339 142.65C146.546 142.65 138.992 141.06 131.677 137.879C124.362 134.699 117.921 130.405 112.355 124.998C109.492 122.135 106.63 119.273 103.767 116.41C100.905 113.548 98.0422 110.685 95.1796 107.823C89.1365 101.779 82.6958 97.0085 75.8575 93.5098C69.1782 89.8521 60.7496 88.0233 50.5716 88.0233H48.1862V140.265H2.38545V19.0836L5.8781e-07 1.20156e-05H48.1862V55.104H55.3425C58.0461 55.104 60.1135 54.7859 61.5447 54.1498C63.135 53.3547 64.8049 52.0029 66.5542 50.0946C70.3709 45.9598 74.5852 40.9503 79.1971 35.0662C83.968 29.023 88.5799 22.9004 93.0327 16.6982C97.6446 10.337 101.541 4.77092 104.721 1.20156e-05H163.165L153.385 14.3127C149.409 18.6066 144.956 23.2979 140.026 28.3869C135.255 33.4759 130.484 38.4853 125.713 43.4153C120.943 48.1862 116.569 52.5595 112.593 56.5353C108.618 60.511 105.437 63.6121 103.052 65.8386C107.982 67.9059 112.275 70.2914 115.933 72.9949C119.591 75.5394 123.567 78.4815 127.86 81.8211C131.836 84.8427 135.255 87.6257 138.118 90.1702C141.139 92.7147 144.718 95.5772 148.852 98.7578C157.44 105.437 164.835 109.651 171.037 111.401C177.398 112.991 181.454 113.786 183.203 113.786L173.661 140.265C172.071 140.742 169.526 141.219 166.028 141.696C162.688 142.332 158.792 142.65 154.339 142.65ZM231.723 140.265C220.909 140.265 212.957 139.788 207.868 138.833C202.779 137.879 200.235 136.766 200.235 135.494L214.547 104.721C218.205 105.358 225.759 105.994 237.209 106.63C248.659 107.107 263.529 107.345 281.817 107.345H300.662C306.228 107.345 309.966 106.55 311.874 104.96C313.782 103.37 314.737 101.064 314.737 98.0422V95.6567C314.737 91.84 313.782 89.216 311.874 87.7847C309.966 86.3535 306.228 85.6378 300.662 85.6378H246.035C229.973 85.6378 218.285 82.6958 210.969 76.8116C203.654 70.7685 199.996 60.9881 199.996 47.4706V38.8829C199.996 31.8856 201.268 25.4449 203.813 19.5607C206.516 13.6766 211.049 8.98522 217.41 5.48656C223.771 1.82886 232.518 1.20156e-05 243.65 1.20156e-05H322.847C332.548 1.20156e-05 340.579 0.556616 346.94 1.66982C353.46 2.78304 356.721 3.97577 356.721 5.248L349.564 34.8276C345.111 34.3506 336.683 33.8735 324.278 33.3964C312.033 32.7602 296.448 32.4422 277.523 32.4422L260.348 32.2036C255.418 32.2036 251.92 32.9193 249.852 34.3505C247.785 35.6228 246.672 38.0878 246.513 41.7455V43.4153C246.513 47.073 247.626 49.6175 249.852 51.0487C252.079 52.48 255.657 53.1956 260.587 53.1956H313.067C323.245 53.1956 331.912 54.2293 339.068 56.2967C346.225 58.3641 351.711 62.1809 355.528 67.7469C359.345 73.1539 361.253 81.185 361.253 91.84V100.428C361.253 112.355 358.152 121.976 351.95 129.292C345.906 136.607 335.331 140.265 320.223 140.265H231.723ZM421.581 140.265C410.767 140.265 402.815 139.788 397.726 138.833C392.637 137.879 390.093 136.766 390.093 135.494L404.405 104.721C408.063 105.358 415.617 105.994 427.067 106.63C438.517 107.107 453.387 107.345 471.675 107.345H490.52C496.086 107.345 499.824 106.55 501.732 104.96C503.64 103.37 504.594 101.064 504.594 98.0422V95.6567C504.594 91.84 503.64 89.216 501.732 87.7847C499.824 86.3535 496.086 85.6378 490.52 85.6378H435.893C419.831 85.6378 408.143 82.6958 400.827 76.8116C393.512 70.7685 389.854 60.9881 389.854 47.4706V38.8829C389.854 31.8856 391.126 25.4449 393.671 19.5607C396.374 13.6766 400.907 8.98522 407.268 5.48656C413.629 1.82886 422.376 1.20156e-05 433.508 1.20156e-05H512.705C522.406 1.20156e-05 530.437 0.556616 536.798 1.66982C543.318 2.78304 546.578 3.97577 546.578 5.248L539.422 34.8276C534.969 34.3506 526.541 33.8735 514.136 33.3964C501.891 32.7602 486.306 32.4422 467.381 32.4422L450.206 32.2036C445.276 32.2036 441.777 32.9193 439.71 34.3505C437.643 35.6228 436.529 38.0878 436.37 41.7455V43.4153C436.37 47.073 437.484 49.6175 439.71 51.0487C441.937 52.48 445.515 53.1956 450.445 53.1956H502.925C513.103 53.1956 521.77 54.2293 528.926 56.2967C536.082 58.3641 541.569 62.1809 545.386 67.7469C549.202 73.1539 551.111 81.185 551.111 91.84V100.428C551.111 112.355 548.01 121.976 541.808 129.292C535.764 136.607 525.189 140.265 510.081 140.265H421.581ZM584.483 140.265V1.20156e-05H630.284V140.265H584.483Z" fill="#0066cc"/>
</svg>
