<svg width="256" height="256" viewBox="0 0 256 256" xmlns="http://www.w3.org/2000/svg">
  <path d="M128 10L240 65V191L128 246L16 191V65L128 10Z" fill="#00ccff"/>
  <path d="M128 30L220 77V179L128 226L36 179V77L128 30Z" fill="#ccf5ff"/>
  <path d="M94.7 159.3C92.5 161.5 88.9 161.5 86.7 159.3L57.5 130.1C55.3 127.9 55.3 124.3 57.5 122.1L63.9 115.7C66.1 113.5 69.7 113.5 71.9 115.7L90.7 134.5L184.1 41.1C186.3 38.9 189.9 38.9 192.1 41.1L198.5 47.5C200.7 49.7 200.7 53.3 198.5 55.5L94.7 159.3Z" fill="#0099cc" transform="translate(0, 50)"/>
</svg>
